<svg width="35" height="35" viewBox="0 0 35 35" fill="none" xmlns="http://www.w3.org/2000/svg">
<circle cx="17.5" cy="17.5" r="17" stroke="#A93D98"/>
<path d="M9 14.8715L17.2326 19.058C17.3152 19.1 17.4069 19.1219 17.5 19.1219C17.5931 19.1219 17.6848 19.1 17.7674 19.058L26 14.8722V22.1444C26 22.7717 25.7546 23.3751 25.3141 23.831C24.8735 24.2869 24.2713 24.5607 23.6308 24.5962L23.4886 24.6H11.5114C10.8699 24.6 10.2527 24.3601 9.78646 23.9293C9.32019 23.4986 9.04018 22.9097 9.00386 22.2835L9 22.1444V14.8715ZM11.5114 11H23.4886C24.1301 11 24.7473 11.2399 25.2135 11.6707C25.6798 12.1014 25.9598 12.6903 25.9961 13.3165L26 13.4556V13.5946L17.5 17.9164L9 13.5946V13.4556C8.99996 12.8283 9.24538 12.2249 9.68593 11.769C10.1265 11.3131 10.7287 11.0393 11.3692 11.0038L11.5114 11H23.4886H11.5114Z" fill="#A93D98"/>
</svg>
