<svg width="146" height="22" viewBox="0 0 146 22" fill="none" xmlns="http://www.w3.org/2000/svg">
<path d="M37.6172 15H36.1406V7.66406H32.3848V15H30.9082V6.46875H37.6172V15ZM42.0645 15.1172C41.1621 15.1172 40.4297 14.834 39.8672 14.2676C39.3086 13.6973 39.0293 12.9395 39.0293 11.9941V11.8184C39.0293 11.1855 39.1504 10.6211 39.3926 10.125C39.6387 9.625 39.9824 9.23633 40.4238 8.95898C40.8652 8.68164 41.3574 8.54297 41.9004 8.54297C42.7637 8.54297 43.4297 8.81836 43.8984 9.36914C44.3711 9.91992 44.6074 10.6992 44.6074 11.707V12.2812H40.4648C40.5078 12.8047 40.6816 13.2188 40.9863 13.5234C41.2949 13.8281 41.6816 13.9805 42.1465 13.9805C42.7988 13.9805 43.3301 13.7168 43.7402 13.1895L44.5078 13.9219C44.2539 14.3008 43.9141 14.5957 43.4883 14.8066C43.0664 15.0137 42.5918 15.1172 42.0645 15.1172ZM41.8945 9.68555C41.5039 9.68555 41.1875 9.82227 40.9453 10.0957C40.707 10.3691 40.5547 10.75 40.4883 11.2383H43.2012V11.1328C43.1699 10.6562 43.043 10.2969 42.8203 10.0547C42.5977 9.80859 42.2891 9.68555 41.8945 9.68555ZM51.2695 11.8945C51.2695 12.875 51.0469 13.6582 50.6016 14.2441C50.1562 14.8262 49.5586 15.1172 48.8086 15.1172C48.1133 15.1172 47.5566 14.8887 47.1387 14.4316V17.4375H45.7148V8.66016H47.0273L47.0859 9.30469C47.5039 8.79688 48.0723 8.54297 48.791 8.54297C49.5645 8.54297 50.1699 8.83203 50.6074 9.41016C51.0488 9.98438 51.2695 10.7832 51.2695 11.8066V11.8945ZM49.8516 11.7715C49.8516 11.1387 49.7246 10.6367 49.4707 10.2656C49.2207 9.89453 48.8613 9.70898 48.3926 9.70898C47.8105 9.70898 47.3926 9.94922 47.1387 10.4297V13.2422C47.3965 13.7344 47.8184 13.9805 48.4043 13.9805C48.8574 13.9805 49.2109 13.7988 49.4648 13.4355C49.7227 13.0684 49.8516 12.5137 49.8516 11.7715ZM55.2715 15.1172C54.3691 15.1172 53.6367 14.834 53.0742 14.2676C52.5156 13.6973 52.2363 12.9395 52.2363 11.9941V11.8184C52.2363 11.1855 52.3574 10.6211 52.5996 10.125C52.8457 9.625 53.1895 9.23633 53.6309 8.95898C54.0723 8.68164 54.5645 8.54297 55.1074 8.54297C55.9707 8.54297 56.6367 8.81836 57.1055 9.36914C57.5781 9.91992 57.8145 10.6992 57.8145 11.707V12.2812H53.6719C53.7148 12.8047 53.8887 13.2188 54.1934 13.5234C54.502 13.8281 54.8887 13.9805 55.3535 13.9805C56.0059 13.9805 56.5371 13.7168 56.9473 13.1895L57.7148 13.9219C57.4609 14.3008 57.1211 14.5957 56.6953 14.8066C56.2734 15.0137 55.7988 15.1172 55.2715 15.1172ZM55.1016 9.68555C54.7109 9.68555 54.3945 9.82227 54.1523 10.0957C53.9141 10.3691 53.7617 10.75 53.6953 11.2383H56.4082V11.1328C56.377 10.6562 56.25 10.2969 56.0273 10.0547C55.8047 9.80859 55.4961 9.68555 55.1016 9.68555ZM62.8828 8.66016H64.3008V15H62.8828V10.7695L60.3984 15H58.9805V8.66016H60.3984V12.8906L62.8828 8.66016ZM63.5508 6.22852C63.5508 6.7207 63.3789 7.11914 63.0352 7.42383C62.6914 7.72852 62.2324 7.88086 61.6582 7.88086C61.084 7.88086 60.625 7.72852 60.2812 7.42383C59.9375 7.11914 59.7656 6.7207 59.7656 6.22852H60.832C60.832 6.48633 60.9043 6.6875 61.0488 6.83203C61.1973 6.97266 61.4004 7.04297 61.6582 7.04297C61.916 7.04297 62.1172 6.97266 62.2617 6.83203C62.4062 6.6875 62.4785 6.48633 62.4785 6.22852H63.5508ZM70.8047 9.79102H68.748V15H67.3242V9.79102H65.291V8.66016H70.8047V9.79102ZM75.7148 8.66016H77.1328V15H75.7148V10.7695L73.2305 15H71.8125V8.66016H73.2305V12.8906L75.7148 8.66016ZM81.7441 15V8.66016H84.3164C85.1836 8.66016 85.8438 8.8125 86.2969 9.11719C86.75 9.41797 86.9766 9.85156 86.9766 10.418C86.9766 10.7109 86.8848 10.9746 86.7012 11.209C86.5215 11.4395 86.2539 11.6172 85.8984 11.7422C86.3125 11.8281 86.6406 12.002 86.8828 12.2637C87.125 12.5254 87.2461 12.834 87.2461 13.1895C87.2461 13.7793 87.0273 14.2285 86.5898 14.5371C86.1562 14.8457 85.5312 15 84.7148 15H81.7441ZM83.168 12.2988V13.875H84.7266C85.457 13.875 85.8223 13.6133 85.8223 13.0898C85.8223 12.5625 85.4512 12.2988 84.709 12.2988H83.168ZM83.168 11.2793H84.3398C85.1484 11.2793 85.5527 11.041 85.5527 10.5645C85.5527 10.0645 85.1699 9.80664 84.4043 9.79102H83.168V11.2793ZM93.1699 15H91.6934V6.46875H93.1699V15ZM96.1758 8.66016L96.2168 9.39258C96.6855 8.82617 97.3008 8.54297 98.0625 8.54297C99.3828 8.54297 100.055 9.29883 100.078 10.8105V15H98.6543V10.8926C98.6543 10.4902 98.5664 10.1934 98.3906 10.002C98.2188 9.80664 97.9355 9.70898 97.541 9.70898C96.9668 9.70898 96.5391 9.96875 96.2578 10.4883V15H94.834V8.66016H96.1758ZM105.088 13.2773C105.088 13.0234 104.982 12.8301 104.771 12.6973C104.564 12.5645 104.219 12.4473 103.734 12.3457C103.25 12.2441 102.846 12.1152 102.521 11.959C101.811 11.6152 101.455 11.1172 101.455 10.4648C101.455 9.91797 101.686 9.46094 102.146 9.09375C102.607 8.72656 103.193 8.54297 103.904 8.54297C104.662 8.54297 105.273 8.73047 105.738 9.10547C106.207 9.48047 106.441 9.9668 106.441 10.5645H105.018C105.018 10.291 104.916 10.0645 104.713 9.88477C104.51 9.70117 104.24 9.60938 103.904 9.60938C103.592 9.60938 103.336 9.68164 103.137 9.82617C102.941 9.9707 102.844 10.1641 102.844 10.4062C102.844 10.625 102.936 10.7949 103.119 10.916C103.303 11.0371 103.674 11.1602 104.232 11.2852C104.791 11.4062 105.229 11.5527 105.545 11.7246C105.865 11.8926 106.102 12.0957 106.254 12.334C106.41 12.5723 106.488 12.8613 106.488 13.2012C106.488 13.7715 106.252 14.2344 105.779 14.5898C105.307 14.9414 104.688 15.1172 103.922 15.1172C103.402 15.1172 102.939 15.0234 102.533 14.8359C102.127 14.6484 101.811 14.3906 101.584 14.0625C101.357 13.7344 101.244 13.3809 101.244 13.002H102.627C102.646 13.3379 102.773 13.5977 103.008 13.7812C103.242 13.9609 103.553 14.0508 103.939 14.0508C104.314 14.0508 104.6 13.9805 104.795 13.8398C104.99 13.6953 105.088 13.5078 105.088 13.2773ZM109.518 7.11914V8.66016H110.637V9.71484H109.518V13.2539C109.518 13.4961 109.564 13.6719 109.658 13.7812C109.756 13.8867 109.928 13.9395 110.174 13.9395C110.338 13.9395 110.504 13.9199 110.672 13.8809V14.9824C110.348 15.0723 110.035 15.1172 109.734 15.1172C108.641 15.1172 108.094 14.5137 108.094 13.3066V9.71484H107.051V8.66016H108.094V7.11914H109.518ZM115.518 15C115.455 14.8789 115.4 14.6816 115.354 14.4082C114.9 14.8809 114.346 15.1172 113.689 15.1172C113.053 15.1172 112.533 14.9355 112.131 14.5723C111.729 14.209 111.527 13.7598 111.527 13.2246C111.527 12.5488 111.777 12.0312 112.277 11.6719C112.781 11.3086 113.5 11.127 114.434 11.127H115.307V10.7109C115.307 10.3828 115.215 10.1211 115.031 9.92578C114.848 9.72656 114.568 9.62695 114.193 9.62695C113.869 9.62695 113.604 9.70898 113.396 9.87305C113.189 10.0332 113.086 10.2383 113.086 10.4883H111.662C111.662 10.1406 111.777 9.81641 112.008 9.51562C112.238 9.21094 112.551 8.97266 112.945 8.80078C113.344 8.62891 113.787 8.54297 114.275 8.54297C115.018 8.54297 115.609 8.73047 116.051 9.10547C116.492 9.47656 116.719 10 116.73 10.6758V13.5352C116.73 14.1055 116.811 14.5605 116.971 14.9004V15H115.518ZM113.953 13.9746C114.234 13.9746 114.498 13.9062 114.744 13.7695C114.994 13.6328 115.182 13.4492 115.307 13.2188V12.0234H114.539C114.012 12.0234 113.615 12.1152 113.35 12.2988C113.084 12.4824 112.951 12.7422 112.951 13.0781C112.951 13.3516 113.041 13.5703 113.221 13.7344C113.404 13.8945 113.648 13.9746 113.953 13.9746ZM117.973 11.7832C117.973 10.7988 118.203 10.0137 118.664 9.42773C119.129 8.83789 119.744 8.54297 120.51 8.54297C121.232 8.54297 121.801 8.79492 122.215 9.29883L122.279 8.66016H123.562V14.8066C123.562 15.6387 123.303 16.2949 122.783 16.7754C122.268 17.2559 121.57 17.4961 120.691 17.4961C120.227 17.4961 119.771 17.3984 119.326 17.2031C118.885 17.0117 118.549 16.7598 118.318 16.4473L118.992 15.5918C119.43 16.1113 119.969 16.3711 120.609 16.3711C121.082 16.3711 121.455 16.2422 121.729 15.9844C122.002 15.7305 122.139 15.3555 122.139 14.8594V14.4316C121.729 14.8887 121.182 15.1172 120.498 15.1172C119.756 15.1172 119.148 14.8223 118.676 14.2324C118.207 13.6426 117.973 12.8262 117.973 11.7832ZM119.391 11.9062C119.391 12.543 119.52 13.0449 119.777 13.4121C120.039 13.7754 120.4 13.957 120.861 13.957C121.436 13.957 121.861 13.7109 122.139 13.2188V10.4297C121.869 9.94922 121.447 9.70898 120.873 9.70898C120.404 9.70898 120.039 9.89453 119.777 10.2656C119.52 10.6367 119.391 11.1836 119.391 11.9062ZM128.35 9.96094C128.162 9.92969 127.969 9.91406 127.77 9.91406C127.117 9.91406 126.678 10.1641 126.451 10.6641V15H125.027V8.66016H126.387L126.422 9.36914C126.766 8.81836 127.242 8.54297 127.852 8.54297C128.055 8.54297 128.223 8.57031 128.355 8.625L128.35 9.96094ZM132.861 15C132.799 14.8789 132.744 14.6816 132.697 14.4082C132.244 14.8809 131.689 15.1172 131.033 15.1172C130.396 15.1172 129.877 14.9355 129.475 14.5723C129.072 14.209 128.871 13.7598 128.871 13.2246C128.871 12.5488 129.121 12.0312 129.621 11.6719C130.125 11.3086 130.844 11.127 131.777 11.127H132.65V10.7109C132.65 10.3828 132.559 10.1211 132.375 9.92578C132.191 9.72656 131.912 9.62695 131.537 9.62695C131.213 9.62695 130.947 9.70898 130.74 9.87305C130.533 10.0332 130.43 10.2383 130.43 10.4883H129.006C129.006 10.1406 129.121 9.81641 129.352 9.51562C129.582 9.21094 129.895 8.97266 130.289 8.80078C130.688 8.62891 131.131 8.54297 131.619 8.54297C132.361 8.54297 132.953 8.73047 133.395 9.10547C133.836 9.47656 134.062 10 134.074 10.6758V13.5352C134.074 14.1055 134.154 14.5605 134.314 14.9004V15H132.861ZM131.297 13.9746C131.578 13.9746 131.842 13.9062 132.088 13.7695C132.338 13.6328 132.525 13.4492 132.65 13.2188V12.0234H131.883C131.355 12.0234 130.959 12.1152 130.693 12.2988C130.428 12.4824 130.295 12.7422 130.295 13.0781C130.295 13.3516 130.385 13.5703 130.564 13.7344C130.748 13.8945 130.992 13.9746 131.297 13.9746ZM136.904 8.66016L136.945 9.32227C137.391 8.80273 138 8.54297 138.773 8.54297C139.621 8.54297 140.201 8.86719 140.514 9.51562C140.975 8.86719 141.623 8.54297 142.459 8.54297C143.158 8.54297 143.678 8.73633 144.018 9.12305C144.361 9.50977 144.537 10.0801 144.545 10.834V15H143.121V10.875C143.121 10.4727 143.033 10.1777 142.857 9.99023C142.682 9.80273 142.391 9.70898 141.984 9.70898C141.66 9.70898 141.395 9.79688 141.188 9.97266C140.984 10.1445 140.842 10.3711 140.76 10.6523L140.766 15H139.342V10.8281C139.322 10.082 138.941 9.70898 138.199 9.70898C137.629 9.70898 137.225 9.94141 136.986 10.4062V15H135.562V8.66016H136.904Z" fill="white"/>
<path fill-rule="evenodd" clip-rule="evenodd" d="M6.465 0.066C7.638 0.012 8.012 0 11 0C13.988 0 14.362 0.013 15.534 0.066C16.706 0.119 17.506 0.306 18.206 0.577C18.939 0.854 19.604 1.287 20.154 1.847C20.714 2.396 21.146 3.06 21.422 3.794C21.694 4.494 21.88 5.294 21.934 6.464C21.988 7.639 22 8.013 22 11C22 13.988 21.987 14.362 21.934 15.535C21.881 16.705 21.694 17.505 21.422 18.205C21.146 18.9391 20.7133 19.6042 20.154 20.154C19.604 20.714 18.939 21.146 18.206 21.422C17.506 21.694 16.706 21.88 15.536 21.934C14.362 21.988 13.988 22 11 22C8.012 22 7.638 21.987 6.465 21.934C5.295 21.881 4.495 21.694 3.795 21.422C3.06092 21.146 2.39582 20.7133 1.846 20.154C1.28638 19.6047 0.853315 18.9399 0.577 18.206C0.306 17.506 0.12 16.706 0.066 15.536C0.012 14.361 0 13.987 0 11C0 8.012 0.013 7.638 0.066 6.466C0.119 5.294 0.306 4.494 0.577 3.794C0.853723 3.06008 1.28712 2.39531 1.847 1.846C2.39604 1.2865 3.06047 0.853443 3.794 0.577C4.494 0.306 5.294 0.12 6.464 0.066H6.465ZM15.445 2.046C14.285 1.993 13.937 1.982 11 1.982C8.063 1.982 7.715 1.993 6.555 2.046C5.482 2.095 4.9 2.274 4.512 2.425C3.999 2.625 3.632 2.862 3.247 3.247C2.88205 3.60205 2.60118 4.03428 2.425 4.512C2.274 4.9 2.095 5.482 2.046 6.555C1.993 7.715 1.982 8.063 1.982 11C1.982 13.937 1.993 14.285 2.046 15.445C2.095 16.518 2.274 17.1 2.425 17.488C2.601 17.965 2.882 18.398 3.247 18.753C3.602 19.118 4.035 19.399 4.512 19.575C4.9 19.726 5.482 19.905 6.555 19.954C7.715 20.007 8.062 20.018 11 20.018C13.938 20.018 14.285 20.007 15.445 19.954C16.518 19.905 17.1 19.726 17.488 19.575C18.001 19.375 18.368 19.138 18.753 18.753C19.118 18.398 19.399 17.965 19.575 17.488C19.726 17.1 19.905 16.518 19.954 15.445C20.007 14.285 20.018 13.937 20.018 11C20.018 8.063 20.007 7.715 19.954 6.555C19.905 5.482 19.726 4.9 19.575 4.512C19.375 3.999 19.138 3.632 18.753 3.247C18.3979 2.88207 17.9657 2.60121 17.488 2.425C17.1 2.274 16.518 2.095 15.445 2.046ZM9.595 14.391C10.3797 14.7176 11.2534 14.7617 12.0669 14.5157C12.8805 14.2697 13.5834 13.7489 14.0556 13.0422C14.5278 12.3356 14.7401 11.4869 14.656 10.6411C14.572 9.79534 14.197 9.00497 13.595 8.405C13.2112 8.02148 12.7472 7.72781 12.2363 7.54515C11.7255 7.36248 11.1804 7.29536 10.6405 7.34862C10.1006 7.40187 9.57915 7.57418 9.1138 7.85313C8.64845 8.13208 8.25074 8.51074 7.9493 8.96185C7.64786 9.41296 7.45019 9.92529 7.37052 10.462C7.29084 10.9986 7.33115 11.5463 7.48854 12.0655C7.64593 12.5847 7.91648 13.0626 8.28072 13.4647C8.64496 13.8668 9.09382 14.1832 9.595 14.391ZM7.002 7.002C7.52702 6.47697 8.15032 6.0605 8.8363 5.77636C9.52228 5.49222 10.2575 5.34597 11 5.34597C11.7425 5.34597 12.4777 5.49222 13.1637 5.77636C13.8497 6.0605 14.473 6.47697 14.998 7.002C15.523 7.52702 15.9395 8.15032 16.2236 8.8363C16.5078 9.52228 16.654 10.2575 16.654 11C16.654 11.7425 16.5078 12.4777 16.2236 13.1637C15.9395 13.8497 15.523 14.473 14.998 14.998C13.9377 16.0583 12.4995 16.654 11 16.654C9.50046 16.654 8.06234 16.0583 7.002 14.998C5.94166 13.9377 5.34597 12.4995 5.34597 11C5.34597 9.50046 5.94166 8.06234 7.002 7.002ZM17.908 6.188C18.0381 6.06527 18.1423 5.91768 18.2143 5.75397C18.2863 5.59027 18.3248 5.41377 18.3274 5.23493C18.33 5.05609 18.2967 4.87855 18.2295 4.71281C18.1622 4.54707 18.0624 4.39651 17.936 4.27004C17.8095 4.14357 17.6589 4.04376 17.4932 3.97652C17.3275 3.90928 17.1499 3.87598 16.9711 3.87858C16.7922 3.88119 16.6157 3.91965 16.452 3.9917C16.2883 4.06374 16.1407 4.1679 16.018 4.298C15.7793 4.55103 15.6486 4.88712 15.6537 5.23493C15.6588 5.58274 15.7992 5.91488 16.0452 6.16084C16.2911 6.40681 16.6233 6.54723 16.9711 6.5523C17.3189 6.55737 17.655 6.42669 17.908 6.188Z" fill="white"/>
</svg>
