<svg width="35" height="35" viewBox="0 0 35 35" fill="none" xmlns="http://www.w3.org/2000/svg">
<circle cx="17.5" cy="17.5" r="17" stroke="#A93D98"/>
<path d="M19.8441 15.1551C21.8279 17.1409 21.8006 20.3247 19.856 22.2801C19.8524 22.2841 19.8481 22.2884 19.8441 22.2924L17.6128 24.5237C15.6449 26.4916 12.4431 26.4914 10.4755 24.5237C8.50752 22.5561 8.50752 19.354 10.4755 17.3863L11.7075 16.1543C12.0342 15.8276 12.5969 16.0447 12.6138 16.5065C12.6353 17.0949 12.7408 17.6861 12.9355 18.257C13.0014 18.4503 12.9543 18.6641 12.8099 18.8085L12.3754 19.2431C11.4448 20.1736 11.4156 21.6888 12.337 22.6284C13.2675 23.5774 14.7969 23.583 15.7345 22.6454L17.9658 20.4145C18.9018 19.4784 18.8979 17.9655 17.9658 17.0334C17.8429 16.9107 17.7191 16.8154 17.6224 16.7489C17.554 16.7019 17.4975 16.6396 17.4575 16.5669C17.4174 16.4943 17.3949 16.4132 17.3918 16.3303C17.3786 15.9795 17.5029 15.6179 17.7802 15.3407L18.4792 14.6416C18.6625 14.4583 18.9501 14.4357 19.1627 14.5841C19.4061 14.7541 19.6341 14.9451 19.8441 15.1551ZM24.5235 10.4754C22.5559 8.50769 19.3542 8.50742 17.3862 10.4754L15.155 12.7066C15.151 12.7106 15.1467 12.7149 15.143 12.7189C13.1984 14.6743 13.1712 17.8581 15.155 19.844C15.3649 20.0539 15.5929 20.245 15.8363 20.4149C16.0489 20.5633 16.3365 20.5407 16.5198 20.3575L17.2188 19.6584C17.4961 19.3811 17.6204 19.0196 17.6072 18.6687C17.6041 18.5858 17.5816 18.5048 17.5415 18.4321C17.5015 18.3594 17.445 18.2971 17.3766 18.2502C17.2799 18.1836 17.1561 18.0883 17.0332 17.9656C16.1011 17.0335 16.0972 15.5206 17.0332 14.5846L19.2645 12.3536C20.2021 11.416 21.7315 11.4217 22.662 12.3706C23.5834 13.3102 23.5542 14.8254 22.6236 15.756L22.1891 16.1905C22.0447 16.3349 21.9976 16.5488 22.0635 16.7421C22.2582 17.313 22.3637 17.9041 22.3852 18.4926C22.4021 18.9543 22.9648 19.1714 23.2915 18.8447L24.5235 17.6127C26.4915 15.6451 26.4915 12.443 24.5235 10.4754Z" fill="#A93D98" stroke="#A93D98" stroke-width="0.5"/>
</svg>
