<svg width="35" height="35" viewBox="0 0 35 35" fill="none" xmlns="http://www.w3.org/2000/svg">
<path d="M16.0664 18.9274C17.1085 20.0069 18.3693 20.8403 19.7604 21.3691L21.6423 19.8399C21.6981 19.8006 21.7643 19.7796 21.832 19.7796C21.8998 19.7796 21.9659 19.8006 22.0217 19.8399L25.5161 22.1388C25.6487 22.2203 25.761 22.3321 25.8441 22.4655C25.9271 22.5989 25.9787 22.7501 25.9947 22.9073C26.0106 23.0646 25.9906 23.2234 25.9361 23.3714C25.8817 23.5193 25.7942 23.6523 25.6808 23.7598L24.0434 25.4114C23.809 25.648 23.5208 25.8216 23.2046 25.9168C22.8884 26.012 22.554 26.0257 22.2314 25.9568C19.0127 25.278 16.046 23.6882 13.6703 21.3691C11.3473 19.027 9.73983 16.0468 9.04282 12.7901C8.97397 12.4657 8.98834 12.1286 9.08454 11.8116C9.18075 11.4946 9.35552 11.2083 9.59193 10.9805L11.2892 9.30849C11.3942 9.19828 11.5223 9.11376 11.6638 9.06125C11.8054 9.00875 11.9567 8.98963 12.1065 9.00532C12.2564 9.02101 12.4008 9.07111 12.5289 9.15186C12.6571 9.23261 12.7657 9.34192 12.8466 9.47161L15.1729 12.994C15.213 13.0493 15.2346 13.1163 15.2346 13.1851C15.2346 13.254 15.213 13.321 15.1729 13.3763L13.6404 15.2572C14.1723 16.6493 15.001 17.9031 16.0664 18.9274Z" fill="#A93D98"/>
<circle cx="17.5" cy="17.5" r="17" stroke="#A93D98"/>
</svg>
