<svg width="35" height="35" viewBox="0 0 35 35" fill="none" xmlns="http://www.w3.org/2000/svg">
<circle cx="17.5" cy="17.5" r="17" stroke="#A93D98"/>
<path d="M17.4915 9C12.7995 9 9 12.808 9 17.5C9 22.192 12.7995 26 17.4915 26C22.192 26 26 22.192 26 17.5C26 12.808 22.192 9 17.4915 9ZM20.9 20.9C20.8214 20.9788 20.728 21.0413 20.6251 21.084C20.5223 21.1266 20.4121 21.1486 20.3008 21.1486C20.1894 21.1486 20.0792 21.1266 19.9764 21.084C19.8735 21.0413 19.7801 20.9788 19.7015 20.9L16.905 18.1035C16.8247 18.0248 16.7608 17.9309 16.717 17.8273C16.6732 17.7237 16.6505 17.6125 16.65 17.5V14.1C16.65 13.6325 17.0325 13.25 17.5 13.25C17.9675 13.25 18.35 13.6325 18.35 14.1V17.1515L20.9 19.7015C21.2315 20.033 21.2315 20.5685 20.9 20.9Z" fill="#A93D98"/>
</svg>
