<svg width="35" height="35" viewBox="0 0 35 35" fill="none" xmlns="http://www.w3.org/2000/svg">
<path fill-rule="evenodd" clip-rule="evenodd" d="M25.0859 9.92071C24.1634 8.99214 23.0658 8.25584 21.8567 7.75449C20.6476 7.25314 19.3511 6.99671 18.0421 7.00003C12.5535 7.00003 8.08541 11.467 8.08319 16.9579C8.08319 18.7127 8.54132 20.4254 9.41209 21.9362L8 27.0954L13.279 25.7099C14.7392 26.5048 16.3751 26.9216 18.0377 26.9223H18.0421C23.5296 26.9223 27.9977 22.4554 28 16.9645C28.0037 15.6561 27.7481 14.36 27.248 13.1509C26.7478 11.9419 26.013 10.844 25.0859 9.92071ZM18.0421 25.2418H18.0388C16.5563 25.242 15.1011 24.8431 13.8258 24.0871L13.5241 23.9074L10.3916 24.7293L11.2268 21.6755L11.0305 21.3627C10.2016 20.0432 9.76287 18.5161 9.76483 16.9579C9.76705 12.3944 13.4797 8.68167 18.0455 8.68167C19.1328 8.67925 20.2098 8.89252 21.2142 9.30912C22.2186 9.72573 23.1304 10.3374 23.8968 11.1087C24.6673 11.8764 25.278 12.7891 25.6937 13.7942C26.1093 14.7994 26.3216 15.8769 26.3183 16.9645C26.3161 21.528 22.6034 25.2418 18.0421 25.2418ZM22.5823 19.0422C22.3327 18.9168 21.1103 18.3156 20.8818 18.2324C20.6544 18.1492 20.4892 18.1082 20.3228 18.3566C20.1564 18.6051 19.6794 19.1653 19.5341 19.3317C19.3888 19.4981 19.2435 19.518 18.995 19.3938C18.7465 19.2696 17.9445 19.0067 16.9939 18.1592C16.254 17.4992 15.7548 16.685 15.6095 16.4354C15.4642 16.1858 15.594 16.0516 15.7193 15.9274C15.8314 15.8164 15.9678 15.6367 16.0921 15.4914C16.2163 15.3461 16.2573 15.2429 16.3405 15.0766C16.4237 14.9102 16.3827 14.7649 16.3195 14.6406C16.2573 14.5153 15.7593 13.2906 15.5518 12.7926C15.3511 12.3101 15.1459 12.3744 14.9928 12.3677C14.8342 12.3613 14.6756 12.3583 14.5169 12.3589C14.3907 12.3621 14.2666 12.3913 14.1522 12.4448C14.0379 12.4982 13.9358 12.5747 13.8525 12.6695C13.6239 12.919 12.9817 13.5203 12.9817 14.7449C12.9817 15.9695 13.8735 17.1531 13.9978 17.3195C14.122 17.4859 15.7526 19.9983 18.2485 21.0765C18.843 21.3328 19.3067 21.4859 19.6672 21.6012C20.2629 21.7909 20.8053 21.7632 21.2346 21.6999C21.7127 21.629 22.7066 21.0987 22.914 20.5175C23.1214 19.9362 23.1214 19.4382 23.0593 19.3339C22.9972 19.2296 22.8297 19.1664 22.5823 19.0422Z" fill="#A93D98"/>
<path d="M17.5 34.5C26.8888 34.5 34.5 26.8888 34.5 17.5C34.5 8.11116 26.8888 0.5 17.5 0.5C8.11116 0.5 0.5 8.11116 0.5 17.5C0.5 26.8888 8.11116 34.5 17.5 34.5Z" stroke="#A93D98"/>
</svg>
